# xmcd CD database file
#
# Track frame offsets:
#	150
#	16417
#	30525
#	50200
#	68672
#	86992
#	102830
#	119622
#	134088
#	151388
#	170719
#	186491
#	199873
#	216548
#	230968
#	250508
#	265684
#	279735
#	295728
#
# Disc length: 4101 seconds
#
# Revision: 0
# Processed by: cddbd v1.5.2PL0 Copyright (c) Steve Scherf et al.
# Submitted via: CDex 2.10
#
DISCID=31100313
DTITLE=Various Artist - Hott Counrty 22
DYEAR=1999
DGENRE=Country
TTITLE0=Shania Twain - Love Gets Me Every Time
TTITLE1=Wynonna - When Love Starts Talking
TTITLE2=Alan Jackson - Between The Devil And Me
TTITLE3=Patty Loveless - You Don`t Seem To Miss Me
TTITLE4=Toby Keith - I`m So Happy I Can`t Stop Crying
TTITLE5=John Michael Montgomery - Angel In My Eyes
TTITLE6=Alabama - Of Course I`m Alright
TTITLE7=Mindy McCreedy - What If I Do
TTITLE8=Sherrie Austin - One Solitary Tear
TTITLE9=Lila McCann - I Wanna Fall I Love
TTITLE10=Diamond Rio - Imagne That
TTITLE11=Tracy Byrd - Good Ol` Fashion Love
TTITLE12=Kenny Chesney - A Chance
TTITLE13=Rhett Adkins - More Than Everthing
TTITLE14=Blackhawk - Postmarked Birmingham
TTITLE15=Paul Brandt - A Little In Love
TTITLE16=Great Big Sea - Ordinary Day
TTITLE17=Lee Ann Warmack - You`ve Got To Talk To Me
TTITLE18=Scooter Lee - Sexy Little Christmas Thang
EXTD=YEAR: 1999
EXTT0=
EXTT1=
EXTT2=
EXTT3=
EXTT4=
EXTT5=
EXTT6=
EXTT7=
EXTT8=
EXTT9=
EXTT10=
EXTT11=
EXTT12=
EXTT13=
EXTT14=
EXTT15=
EXTT16=
EXTT17=
EXTT18=
PLAYORDER=
